<svg width="56" height="56" xmlns="http://www.w3.org/2000/svg" fill="currentColor">
 <g>
  <title>Layer 1</title>
  <path id="svg_1" d="m7.586,42.9414l16.2656,9.2344c2.7891,1.5937 5.461,1.6172 8.2969,0l16.2656,-9.2344c2.1797,-1.2422 3.3749,-2.5078 3.3749,-5.9062l0,-18.2344c0,-3.3047 -1.2187,-4.5 -3.2107,-5.6485l-16.3126,-9.2812c-2.9062,-1.6641 -5.6953,-1.6406 -8.5313,0l-16.3125,9.2812c-1.9922,1.1485 -3.2109,2.3438 -3.2109,5.6485l0,18.2344c0,3.3984 1.1953,4.664 3.375,5.9062zm2.2031,-3.2813c-1.3359,-0.75 -1.7812,-1.4765 -1.7812,-2.7422l0,-17.9531c0,-1.1718 0.4687,-1.8515 1.6406,-2.5312l15.75,-9.0235c1.7812,-1.0078 3.375,-1.0547 5.2031,0l15.75,9.0235c1.1721,0.6797 1.6406,1.3594 1.6406,2.5312l0,17.9531c0,1.2657 -0.4454,1.9922 -1.7812,2.7422l-15.6094,8.8829c-1.875,1.0546 -3.3984,1.0312 -5.2031,0l-15.6094,-8.8829z"/>
  <text id="svg_2" font-size="30" x="28" y="32" fill="currentColor" text-anchor="middle" dominant-baseline="middle">S</text>
 </g>

</svg>